<svg xmlns="http://www.w3.org/2000/svg" width="127.461" height="65.03" viewBox="0 0 127.461 65.03">
  <g id="Grupo_34238" data-name="Grupo 34238" transform="translate(0 0)">
    <g id="Grupo_27930" data-name="Grupo 27930" transform="translate(13.688)">
      <g id="Grupo_27928" data-name="Grupo 27928">
        <path id="Caminho_21767" data-name="Caminho 21767" d="M219.192,236.738a16.559,16.559,0,0,0,.593,3.329,10.073,10.073,0,0,1,5.559,8.366,16.643,16.643,0,0,0,2.884,1.87V249.04A12.894,12.894,0,0,0,219.192,236.738Z" transform="translate(-219.192 -220.852)" fill="#fff"/>
        <path id="Caminho_21768" data-name="Caminho 21768" d="M220.052,212.429a16.537,16.537,0,0,0-.583,2.819,15.983,15.983,0,0,1,12.074,15.512v2.47a16.564,16.564,0,0,0,2.879.526v-3A18.881,18.881,0,0,0,220.052,212.429Z" transform="translate(-219.4 -202.572)" fill="#fff"/>
        <path id="Caminho_21769" data-name="Caminho 21769" d="M243.8,204.606a24.888,24.888,0,0,0-15.591-14.089,16.62,16.62,0,0,0-1.627,2.529,21.991,21.991,0,0,1,16.294,21.238v3a16.57,16.57,0,0,0,2.879-.526v-2.47A24.711,24.711,0,0,0,243.8,204.606Z" transform="translate(-224.752 -186.095)" fill="#fff"/>
        <path id="Caminho_21770" data-name="Caminho 21770" d="M254.854,179.068a30.733,30.733,0,0,0-9.269-6.377,16.631,16.631,0,0,0-2.85,1.946,27.978,27.978,0,0,1,18.275,26.242v1.263a16.636,16.636,0,0,0,2.873-1.861,30.75,30.75,0,0,0-9.028-21.214Z" transform="translate(-236.895 -172.691)" fill="#fff"/>
      </g>
      <g id="Grupo_27929" data-name="Grupo 27929" transform="translate(6.153 0)">
        <path id="Caminho_21771" data-name="Caminho 21771" d="M322.224,241.962a10.028,10.028,0,0,1,2.632-1.9,16.576,16.576,0,0,0,.593-3.329,12.894,12.894,0,0,0-9.035,12.3V250.3a16.653,16.653,0,0,0,2.9-1.882A9.935,9.935,0,0,1,322.224,241.962Z" transform="translate(-298.451 -220.852)" fill="#36d75e"/>
        <path id="Caminho_21772" data-name="Caminho 21772" d="M295.158,230.761a15.993,15.993,0,0,1,12.074-15.512,16.531,16.531,0,0,0-.583-2.819,18.881,18.881,0,0,0-14.37,18.332v3a16.571,16.571,0,0,0,2.879-.526Z" transform="translate(-280.303 -202.572)" fill="#36d75e"/>
        <path id="Caminho_21773" data-name="Caminho 21773" d="M271.025,214.284a21.991,21.991,0,0,1,16.295-21.238,16.626,16.626,0,0,0-1.628-2.529,24.846,24.846,0,0,0-17.546,23.767v2.47a16.563,16.563,0,0,0,2.879.526Z" transform="translate(-262.156 -186.095)" fill="#36d75e"/>
        <path id="Caminho_21774" data-name="Caminho 21774" d="M246.88,200.879a27.978,27.978,0,0,1,18.275-26.242,16.643,16.643,0,0,0-2.85-1.946A30.863,30.863,0,0,0,244,200.273a16.655,16.655,0,0,0,2.883,1.869Z" transform="translate(-243.997 -172.691)" fill="#36d75e"/>
      </g>
    </g>
    <path id="Caminho_21775" data-name="Caminho 21775" d="M464.006,246m0,2.863" transform="translate(-389.595 -227.819)" fill="#014b3c"/>
    <g id="Grupo_27931" data-name="Grupo 27931" transform="translate(52.35 8.588)">
      <path id="Caminho_21776" data-name="Caminho 21776" d="M586.479,215.822a4.581,4.581,0,0,0,2.29-3.893c0-2.3-1.8-3.856-4.282-3.856h-5.495v13.642a22.4,22.4,0,0,0,2.854,0v-4.122a18.566,18.566,0,0,0,2.107-.571,42.182,42.182,0,0,1,2.457,4.693,28.57,28.57,0,0,0,3.221,0A53.379,53.379,0,0,0,586.479,215.822Zm-4.633-4.889H584c1.368,0,1.942.391,1.838,1.367-.147,1.374-2.351,2.162-3.988,2.546Z" transform="translate(-528.41 -207.885)" fill="#fff"/>
      <path id="Caminho_21777" data-name="Caminho 21777" d="M529.651,207.673a18.457,18.457,0,0,0-2.989.008l-5.114,13.686a21.777,21.777,0,0,0,3.085-.008l.769-2.1a11.2,11.2,0,0,1,5.59,0l.784,2.119a26.378,26.378,0,0,0,3.067-.011Zm-3.189,8.687,1.721-4.705,1.739,4.7A14.368,14.368,0,0,0,526.462,216.359Z" transform="translate(-485.214 -207.541)" fill="#fff"/>
      <path id="Caminho_21778" data-name="Caminho 21778" d="M482.364,221.491l-.039-13.671a21.894,21.894,0,0,0-2.893.008l.021,7.519a34.122,34.122,0,0,0-6.016-7.446v-.054a21.1,21.1,0,0,0-2.87.008l.039,13.671a15.159,15.159,0,0,0,2.87-.008l-.027-9.544a30.305,30.305,0,0,1,6.019,9.525h0A24.671,24.671,0,0,0,482.364,221.491Z" transform="translate(-446.879 -207.661)" fill="#fff"/>
      <path id="Caminho_21779" data-name="Caminho 21779" d="M425.728,221.7V208.063h9.079a14.112,14.112,0,0,1,0,2.863h-6.219v2.264h5.256a16.3,16.3,0,0,1,0,2.667h-5.256v2.98h6.635a14.081,14.081,0,0,1,0,2.863Z" transform="translate(-413.161 -207.877)" fill="#fff"/>
      <path id="Caminho_21780" data-name="Caminho 21780" d="M381.38,221.322c2.461,0,4.76-1.213,4.76-3.946,0-2.606-1.737-3.33-3.656-4.289-.941-.471-3.6-1.466-3.6-2.28,0-.67.778-.832,1.756-.832a10.137,10.137,0,0,1,3.475.652,7.086,7.086,0,0,0,1.032-2.335,12.218,12.218,0,0,0-5.122-.977c-2.443,0-4.145,1.195-4.145,3.6,0,2.66,3.167,3.746,4.525,4.362,1.539.706,2.787,1.1,2.787,2.244,0,.977-1.412.959-2.081.959a12.811,12.811,0,0,1-4.9-1.086,10.55,10.55,0,0,0-1.14,2.407A12.368,12.368,0,0,0,381.38,221.322Z" transform="translate(-375.064 -207.314)" fill="#fff"/>
    </g>
    <g id="Grupo_27932" data-name="Grupo 27932" transform="translate(0 41.074)">
      <rect id="Retângulo_33" data-name="Retângulo 33" width="127.461" height="0.744" fill="#fff"/>
    </g>
    <g id="Grupo_27934" data-name="Grupo 27934" transform="translate(0.313 50.352)">
      <g id="Grupo_27933" data-name="Grupo 27933">
        <path id="Caminho_21781" data-name="Caminho 21781" d="M165.269,391.084V380.943h6.845v1.917H167.55v1.99H171.6v1.873H167.55v2.444h4.9v1.917Z" transform="translate(-165.269 -379.64)" fill="#36d75e"/>
        <path id="Caminho_21782" data-name="Caminho 21782" d="M202.021,387.153q-.292.088-.673.168t-.8.139q-.417.058-.848.1t-.826.037a4.843,4.843,0,0,1-1.7-.278,3.411,3.411,0,0,1-1.258-.8,3.463,3.463,0,0,1-.783-1.259,4.808,4.808,0,0,1-.27-1.661,5.689,5.689,0,0,1,.234-1.69,3.676,3.676,0,0,1,.673-1.281,2.879,2.879,0,0,1,1.075-.8,3.6,3.6,0,0,1,1.455-.278,3.421,3.421,0,0,1,.812.088,4.4,4.4,0,0,1,.724.249V376.4l2.179-.351Zm-4.929-3.659a2.672,2.672,0,0,0,.453,1.624,1.565,1.565,0,0,0,1.346.615q.292,0,.541-.022c.166-.015.3-.031.41-.051v-3.966a1.885,1.885,0,0,0-.534-.219,2.556,2.556,0,0,0-.665-.088Q197.092,381.388,197.092,383.495Z" transform="translate(-187.527 -375.958)" fill="#36d75e"/>
        <path id="Caminho_21783" data-name="Caminho 21783" d="M234.941,398.23a12.222,12.222,0,0,1-1.433.3,11.792,11.792,0,0,1-1.843.139,4.379,4.379,0,0,1-1.631-.263,2.475,2.475,0,0,1-1.031-.739,2.878,2.878,0,0,1-.541-1.134,6.1,6.1,0,0,1-.161-1.449V390.8h2.179v4.024a3.117,3.117,0,0,0,.278,1.522,1.1,1.1,0,0,0,1.039.468q.233,0,.5-.022t.468-.051V390.8h2.179Z" transform="translate(-212.667 -387.05)" fill="#36d75e"/>
        <path id="Caminho_21784" data-name="Caminho 21784" d="M258.489,394.024a4.54,4.54,0,0,1,.271-1.573,3.68,3.68,0,0,1,2.026-2.158,4.1,4.1,0,0,1,1.667-.322,5.385,5.385,0,0,1,1.126.11,5.529,5.529,0,0,1,.995.315l-.454,1.742a5.527,5.527,0,0,0-.673-.2,3.515,3.515,0,0,0-.819-.088,1.727,1.727,0,0,0-1.441.6,2.472,2.472,0,0,0-.475,1.581,2.559,2.559,0,0,0,.446,1.61,1.867,1.867,0,0,0,1.558.571,5.306,5.306,0,0,0,.848-.073,3.6,3.6,0,0,0,.834-.234l.307,1.785a5.116,5.116,0,0,1-.951.278,6.274,6.274,0,0,1-1.258.117,4.733,4.733,0,0,1-1.814-.314,3.419,3.419,0,0,1-1.251-.856,3.34,3.34,0,0,1-.717-1.281A5.428,5.428,0,0,1,258.489,394.024Z" transform="translate(-235.367 -386.428)" fill="#36d75e"/>
        <path id="Caminho_21785" data-name="Caminho 21785" d="M285.823,389.97a5.045,5.045,0,0,1,1.609.22,2.5,2.5,0,0,1,1.031.629,2.319,2.319,0,0,1,.548,1,4.908,4.908,0,0,1,.161,1.3v4.537q-.468.1-1.3.242a12.516,12.516,0,0,1-2.018.139,6.39,6.39,0,0,1-1.353-.132,2.929,2.929,0,0,1-1.046-.432,1.972,1.972,0,0,1-.673-.783,2.7,2.7,0,0,1-.234-1.185,2.246,2.246,0,0,1,.271-1.142,2.084,2.084,0,0,1,.724-.746,3.265,3.265,0,0,1,1.038-.4,5.827,5.827,0,0,1,1.214-.125,6.91,6.91,0,0,1,.753.037,3.371,3.371,0,0,1,.534.1v-.2a1.207,1.207,0,0,0-.336-.892,1.626,1.626,0,0,0-1.17-.337,7.472,7.472,0,0,0-1.1.08,4.722,4.722,0,0,0-.936.227l-.278-1.756c.127-.039.285-.081.475-.124s.4-.083.622-.117.461-.064.709-.088S285.569,389.97,285.823,389.97Zm.175,6.381q.322,0,.614-.015a4.192,4.192,0,0,0,.468-.044v-1.654c-.088-.019-.219-.039-.395-.059a4.456,4.456,0,0,0-.483-.029,4.327,4.327,0,0,0-.578.036,1.5,1.5,0,0,0-.475.139.813.813,0,0,0-.322.278.774.774,0,0,0-.117.439.747.747,0,0,0,.344.71A1.894,1.894,0,0,0,286,396.351Z" transform="translate(-253.457 -386.428)" fill="#36d75e"/>
        <path id="Caminho_21786" data-name="Caminho 21786" d="M316.521,398.458a1.42,1.42,0,0,1,.644.556,1.361,1.361,0,0,1,.175.659,1.2,1.2,0,0,1-.556,1.069,2.623,2.623,0,0,1-1.462.366,4.075,4.075,0,0,1-.643-.051,6.14,6.14,0,0,1-.644-.139l.263-1.273q.1.03.373.1a2.262,2.262,0,0,0,.534.066.762.762,0,0,0,.358-.08.322.322,0,0,0,.168-.285.39.39,0,0,0-.139-.322,1.018,1.018,0,0,0-.49-.22l-.176-.044a4.431,4.431,0,0,1,.161-.432q.1-.241.2-.446a3.613,3.613,0,0,1-1.309-.5,3.243,3.243,0,0,1-.907-.878,3.633,3.633,0,0,1-.526-1.178,5.588,5.588,0,0,1-.168-1.39,4.54,4.54,0,0,1,.271-1.573,3.679,3.679,0,0,1,2.026-2.158,4.1,4.1,0,0,1,1.667-.322,5.386,5.386,0,0,1,1.126.11,5.527,5.527,0,0,1,.995.315l-.454,1.742a5.515,5.515,0,0,0-.673-.2,3.516,3.516,0,0,0-.819-.088,1.727,1.727,0,0,0-1.441.6,2.472,2.472,0,0,0-.475,1.581,2.557,2.557,0,0,0,.446,1.61,1.867,1.867,0,0,0,1.557.571,5.306,5.306,0,0,0,.848-.073,3.6,3.6,0,0,0,.834-.234l.307,1.785a4.3,4.3,0,0,1-.826.249,7,7,0,0,1-1.075.132c-.039.078-.073.151-.1.22S316.54,398.409,316.521,398.458Z" transform="translate(-275.892 -386.428)" fill="#36d75e"/>
        <path id="Caminho_21787" data-name="Caminho 21787" d="M339.716,380.343a5.044,5.044,0,0,1,1.609.22,2.5,2.5,0,0,1,1.031.629,2.318,2.318,0,0,1,.548,1,4.905,4.905,0,0,1,.161,1.3v4.537q-.468.1-1.3.242a12.526,12.526,0,0,1-2.018.139,6.386,6.386,0,0,1-1.353-.132,2.931,2.931,0,0,1-1.046-.431,1.974,1.974,0,0,1-.673-.783,2.7,2.7,0,0,1-.234-1.185,2.247,2.247,0,0,1,.271-1.141,2.084,2.084,0,0,1,.724-.746,3.264,3.264,0,0,1,1.038-.4,5.824,5.824,0,0,1,1.214-.125,6.9,6.9,0,0,1,.753.037,3.364,3.364,0,0,1,.534.1v-.2a1.207,1.207,0,0,0-.336-.892,1.627,1.627,0,0,0-1.17-.337,7.481,7.481,0,0,0-1.1.08,4.731,4.731,0,0,0-.936.227l-.278-1.756q.19-.059.475-.124t.622-.117q.336-.051.709-.088T339.716,380.343Zm2.852-2.473a3.7,3.7,0,0,1-.241.483,2.555,2.555,0,0,1-.373.49,1.953,1.953,0,0,1-.5.373,1.3,1.3,0,0,1-.614.146,1.45,1.45,0,0,1-.49-.081q-.227-.08-.446-.176t-.439-.176a1.315,1.315,0,0,0-.453-.08.654.654,0,0,0-.483.19,1.544,1.544,0,0,0-.307.439l-1.068-.7a3.692,3.692,0,0,1,.241-.483,2.568,2.568,0,0,1,.373-.49,1.958,1.958,0,0,1,.5-.373,1.3,1.3,0,0,1,.614-.146,1.458,1.458,0,0,1,.49.081q.227.081.446.176t.431.176a1.285,1.285,0,0,0,.461.08.656.656,0,0,0,.483-.19,1.556,1.556,0,0,0,.307-.439Zm-2.677,8.854q.322,0,.614-.015a4.172,4.172,0,0,0,.468-.044v-1.654q-.132-.029-.395-.059a4.427,4.427,0,0,0-.483-.029,4.327,4.327,0,0,0-.578.036,1.511,1.511,0,0,0-.475.139.814.814,0,0,0-.322.278.774.774,0,0,0-.117.439.747.747,0,0,0,.344.71A1.894,1.894,0,0,0,339.891,386.723Z" transform="translate(-293.983 -376.801)" fill="#36d75e"/>
        <path id="Caminho_21788" data-name="Caminho 21788" d="M373.837,394.009a5.01,5.01,0,0,1-.263,1.661,3.612,3.612,0,0,1-.761,1.288,3.429,3.429,0,0,1-1.192.827,3.98,3.98,0,0,1-1.558.292,3.937,3.937,0,0,1-1.543-.292,3.423,3.423,0,0,1-1.192-.827,3.78,3.78,0,0,1-.775-1.288,4.76,4.76,0,0,1-.278-1.661,4.6,4.6,0,0,1,.285-1.654,3.753,3.753,0,0,1,.79-1.273,3.551,3.551,0,0,1,1.2-.82,3.858,3.858,0,0,1,1.514-.293,3.9,3.9,0,0,1,1.529.293,3.477,3.477,0,0,1,1.192.82,3.726,3.726,0,0,1,.775,1.273A4.712,4.712,0,0,1,373.837,394.009Zm-2.223,0a2.744,2.744,0,0,0-.4-1.588,1.315,1.315,0,0,0-1.148-.578,1.333,1.333,0,0,0-1.155.578,2.7,2.7,0,0,0-.409,1.588,2.777,2.777,0,0,0,.409,1.6,1.323,1.323,0,0,0,1.155.593,1.305,1.305,0,0,0,1.148-.593A2.818,2.818,0,0,0,371.613,394.009Z" transform="translate(-316.418 -386.428)" fill="#36d75e"/>
        <path id="Caminho_21789" data-name="Caminho 21789" d="M412.182,389.97a5.047,5.047,0,0,1,1.609.22,2.5,2.5,0,0,1,1.031.629,2.318,2.318,0,0,1,.548,1,4.916,4.916,0,0,1,.161,1.3v4.537q-.468.1-1.3.242a12.521,12.521,0,0,1-2.019.139,6.389,6.389,0,0,1-1.353-.132,2.929,2.929,0,0,1-1.046-.432,1.971,1.971,0,0,1-.673-.783,2.7,2.7,0,0,1-.234-1.185,2.246,2.246,0,0,1,.271-1.142,2.084,2.084,0,0,1,.724-.746,3.266,3.266,0,0,1,1.038-.4,5.825,5.825,0,0,1,1.214-.125,6.907,6.907,0,0,1,.753.037,3.369,3.369,0,0,1,.534.1v-.2a1.207,1.207,0,0,0-.337-.892,1.625,1.625,0,0,0-1.17-.337,7.479,7.479,0,0,0-1.1.08,4.723,4.723,0,0,0-.936.227l-.278-1.756c.127-.039.285-.081.475-.124s.4-.083.622-.117.461-.064.709-.088S411.928,389.97,412.182,389.97Zm.176,6.381q.322,0,.614-.015a4.192,4.192,0,0,0,.468-.044v-1.654c-.088-.019-.219-.039-.395-.059a4.458,4.458,0,0,0-.483-.029,4.324,4.324,0,0,0-.577.036,1.5,1.5,0,0,0-.475.139.813.813,0,0,0-.322.278.776.776,0,0,0-.117.439.747.747,0,0,0,.344.71A1.893,1.893,0,0,0,412.357,396.351Z" transform="translate(-348.474 -386.428)" fill="#36d75e"/>
        <path id="Caminho_21790" data-name="Caminho 21790" d="M460.474,385.652a5.928,5.928,0,0,1-.41,2.3,4.252,4.252,0,0,1-1.163,1.624,4.957,4.957,0,0,1-1.836.966,8.507,8.507,0,0,1-2.428.322q-.614,0-1.433-.051a11.656,11.656,0,0,1-1.609-.212V380.72a13.421,13.421,0,0,1,1.645-.2q.855-.051,1.47-.051a8.869,8.869,0,0,1,2.362.293,4.841,4.841,0,0,1,1.821.922,4.1,4.1,0,0,1,1.17,1.61A6.1,6.1,0,0,1,460.474,385.652Zm-6.6,3.22q.161.015.373.022t.5.007a3.364,3.364,0,0,0,2.538-.863,3.31,3.31,0,0,0,.826-2.385,2.861,2.861,0,0,0-3.291-3.234q-.234,0-.482.007a4.63,4.63,0,0,0-.468.036Z" transform="translate(-380.576 -379.286)" fill="#36d75e"/>
        <path id="Caminho_21791" data-name="Caminho 21791" d="M492.82,377.924a1.2,1.2,0,0,1-.388.944,1.386,1.386,0,0,1-1.828,0,1.344,1.344,0,0,1,0-1.888,1.387,1.387,0,0,1,1.828,0A1.2,1.2,0,0,1,492.82,377.924Zm-.2,9.922h-2.179v-7.7h2.179Z" transform="translate(-409.617 -376.402)" fill="#36d75e"/>
        <path id="Caminho_21792" data-name="Caminho 21792" d="M505.614,396.307a2.176,2.176,0,0,0,.848-.117.453.453,0,0,0,.248-.454.556.556,0,0,0-.321-.461,6.157,6.157,0,0,0-.98-.446,9.894,9.894,0,0,1-.929-.4,2.718,2.718,0,0,1-.709-.49,1.971,1.971,0,0,1-.453-.68,2.518,2.518,0,0,1-.161-.951,2.057,2.057,0,0,1,.8-1.712,3.5,3.5,0,0,1,2.208-.629,7.089,7.089,0,0,1,1.346.125,6.294,6.294,0,0,1,1.024.271l-.38,1.7a7.972,7.972,0,0,0-.826-.234,4.5,4.5,0,0,0-1-.1q-1.024,0-1.024.571a.586.586,0,0,0,.044.234.5.5,0,0,0,.175.2,2.493,2.493,0,0,0,.358.206q.227.111.578.243a8.946,8.946,0,0,1,1.184.524,2.827,2.827,0,0,1,.739.558,1.721,1.721,0,0,1,.38.664,2.949,2.949,0,0,1,.11.847,1.952,1.952,0,0,1-.855,1.723,4.266,4.266,0,0,1-2.421.584,6.837,6.837,0,0,1-2.647-.468l.366-1.771a7.117,7.117,0,0,0,1.141.344A5.534,5.534,0,0,0,505.614,396.307Z" transform="translate(-419.193 -386.428)" fill="#36d75e"/>
        <path id="Caminho_21793" data-name="Caminho 21793" d="M529.721,382l2.179-.351v2.268h2.618v1.815H531.9v2.707a2.152,2.152,0,0,0,.241,1.1,1.035,1.035,0,0,0,.973.41,4.158,4.158,0,0,0,.724-.066,3.766,3.766,0,0,0,.68-.183l.307,1.7a6.169,6.169,0,0,1-.878.278,5.108,5.108,0,0,1-1.185.117,3.894,3.894,0,0,1-1.477-.242,2.316,2.316,0,0,1-.936-.673,2.509,2.509,0,0,1-.49-1.046,6.165,6.165,0,0,1-.139-1.361Z" transform="translate(-439.322 -380.173)" fill="#36d75e"/>
        <path id="Caminho_21794" data-name="Caminho 21794" d="M552.868,379.233a5.043,5.043,0,0,1,1.609.219,2.5,2.5,0,0,1,1.031.629,2.316,2.316,0,0,1,.548,1,4.9,4.9,0,0,1,.161,1.3v4.537q-.468.1-1.3.242a12.533,12.533,0,0,1-2.019.139,6.394,6.394,0,0,1-1.353-.132,2.933,2.933,0,0,1-1.046-.432,1.972,1.972,0,0,1-.673-.783,2.7,2.7,0,0,1-.234-1.185,2.243,2.243,0,0,1,.271-1.141,2.082,2.082,0,0,1,.724-.746,3.267,3.267,0,0,1,1.038-.4,5.825,5.825,0,0,1,1.214-.125,6.892,6.892,0,0,1,.753.037,3.349,3.349,0,0,1,.534.095v-.2a1.207,1.207,0,0,0-.336-.892,1.628,1.628,0,0,0-1.17-.337,7.481,7.481,0,0,0-1.1.08,4.724,4.724,0,0,0-.936.227l-.278-1.756q.19-.058.475-.125t.622-.117q.336-.051.709-.088T552.868,379.233Zm2.311-1.537-.807.966-1.467-1.127-1.467,1.127-.836-.966,2.3-2Zm-2.135,7.917q.321,0,.614-.015a4.174,4.174,0,0,0,.468-.044V383.9c-.088-.019-.219-.039-.395-.058a4.41,4.41,0,0,0-.483-.029,4.334,4.334,0,0,0-.578.037,1.506,1.506,0,0,0-.475.139.813.813,0,0,0-.322.278.774.774,0,0,0-.117.439.747.747,0,0,0,.344.71A1.9,1.9,0,0,0,553.044,385.614Z" transform="translate(-454.265 -375.692)" fill="#36d75e"/>
        <path id="Caminho_21795" data-name="Caminho 21795" d="M580.9,390.527a12.2,12.2,0,0,1,1.433-.3,11.789,11.789,0,0,1,1.843-.139,4.493,4.493,0,0,1,1.631.256,2.456,2.456,0,0,1,1.031.725,2.825,2.825,0,0,1,.541,1.112,5.914,5.914,0,0,1,.161,1.434v4.346h-2.179v-4.083a2.941,2.941,0,0,0-.278-1.492,1.133,1.133,0,0,0-1.039-.439q-.234,0-.5.022t-.468.051v5.942H580.9Z" transform="translate(-477.807 -386.517)" fill="#36d75e"/>
        <path id="Caminho_21796" data-name="Caminho 21796" d="M610.8,394.024a4.533,4.533,0,0,1,.271-1.573,3.678,3.678,0,0,1,2.026-2.158,4.1,4.1,0,0,1,1.667-.322,5.387,5.387,0,0,1,1.126.11,5.543,5.543,0,0,1,.995.315l-.453,1.742a5.533,5.533,0,0,0-.673-.2,3.513,3.513,0,0,0-.819-.088,1.726,1.726,0,0,0-1.44.6,2.47,2.47,0,0,0-.476,1.581,2.558,2.558,0,0,0,.446,1.61,1.867,1.867,0,0,0,1.557.571,5.305,5.305,0,0,0,.848-.073,3.6,3.6,0,0,0,.833-.234l.307,1.785a5.1,5.1,0,0,1-.951.278,6.274,6.274,0,0,1-1.258.117,4.732,4.732,0,0,1-1.813-.314,3.414,3.414,0,0,1-1.251-.856,3.333,3.333,0,0,1-.717-1.281A5.428,5.428,0,0,1,610.8,394.024Z" transform="translate(-500.288 -386.428)" fill="#36d75e"/>
        <path id="Caminho_21797" data-name="Caminho 21797" d="M640.11,377.924a1.2,1.2,0,0,1-.388.944,1.386,1.386,0,0,1-1.828,0,1.344,1.344,0,0,1,0-1.888,1.387,1.387,0,0,1,1.828,0A1.2,1.2,0,0,1,640.11,377.924Zm-.2,9.922h-2.179v-7.7h2.179Z" transform="translate(-520.373 -376.402)" fill="#36d75e"/>
        <path id="Caminho_21798" data-name="Caminho 21798" d="M653.282,389.97a5.045,5.045,0,0,1,1.609.22,2.5,2.5,0,0,1,1.031.629,2.317,2.317,0,0,1,.548,1,4.917,4.917,0,0,1,.161,1.3v4.537q-.468.1-1.3.242a12.515,12.515,0,0,1-2.018.139,6.392,6.392,0,0,1-1.353-.132,2.927,2.927,0,0,1-1.046-.432,1.972,1.972,0,0,1-.673-.783,2.7,2.7,0,0,1-.234-1.185,2.247,2.247,0,0,1,.271-1.142,2.085,2.085,0,0,1,.724-.746,3.266,3.266,0,0,1,1.038-.4,5.824,5.824,0,0,1,1.214-.125,6.915,6.915,0,0,1,.753.037,3.361,3.361,0,0,1,.534.1v-.2a1.206,1.206,0,0,0-.336-.892,1.626,1.626,0,0,0-1.17-.337,7.482,7.482,0,0,0-1.1.08,4.731,4.731,0,0,0-.936.227l-.278-1.756c.127-.039.285-.081.475-.124s.4-.083.621-.117.461-.064.71-.088S653.028,389.97,653.282,389.97Zm.176,6.381q.321,0,.614-.015a4.193,4.193,0,0,0,.468-.044v-1.654c-.088-.019-.22-.039-.395-.059a4.457,4.457,0,0,0-.483-.029,4.329,4.329,0,0,0-.578.036,1.506,1.506,0,0,0-.475.139.816.816,0,0,0-.322.278.775.775,0,0,0-.117.439.748.748,0,0,0,.344.71A1.9,1.9,0,0,0,653.458,396.351Z" transform="translate(-529.772 -386.428)" fill="#36d75e"/>
      </g>
    </g>
    <path id="Caminho_21799" data-name="Caminho 21799" d="M464.018,245.92m0,2.863" transform="translate(-389.604 -227.756)" fill="#014b3c"/>
  </g>
</svg>
